<mxfile host="65bd71144e">
    <diagram id="3M08aGcd9nIL9k6IWEr7" name="Page-1">
        <mxGraphModel dx="1867" dy="3053" grid="1" gridSize="10" guides="1" tooltips="1" connect="1" arrows="1" fold="1" page="0" pageScale="1" pageWidth="850" pageHeight="1100" math="0" shadow="0">
            <root>
                <mxCell id="0"/>
                <mxCell id="1" parent="0"/>
                <mxCell id="4" value="erDiagram&#10;    CUSTOMER ||--o{ ORDER : places&#10;    ORDER ||--|{ LINE-ITEM : contains&#10;    CUSTOMER }|..|{ DELIVERY-ADDRESS : uses" style="shadow=0;dashed=0;align=left;strokeWidth=1;shape=mxgraph.mermaid.abstract.mermaid;labelBackgroundColor=#ffffff;noLabel=1;theme=dark;" parent="1" vertex="1">
                    <mxGeometry x="860" y="-1320" width="770" height="1020" as="geometry"/>
                </mxCell>
                <mxCell id="6" value="erDiagram&#10;&#10;users }o--|| user_types : are&#10;clients }o--|| locations : from&#10;clients ||--o{ requests : make&#10;requests ||--|| request_details : have&#10;&#10;users ||--o{ requests : assigned_to&#10;users ||..o{ clients: assigned_to" style="shadow=0;dashed=0;align=left;strokeWidth=1;shape=mxgraph.mermaid.abstract.mermaid;labelBackgroundColor=#ffffff;noLabel=1;theme=dark;" parent="1" vertex="1">
                    <mxGeometry x="-750" y="-420" width="1350" height="1570" as="geometry"/>
                </mxCell>
                <mxCell id="15" value="belong to" style="edgeStyle=none;html=1;startArrow=ERzeroToMany;startFill=0;endArrow=ERmandOne;endFill=0;endSize=20;startSize=20;fillColor=#60a917;strokeColor=#2D7600;" parent="1" source="8" target="9" edge="1">
                    <mxGeometry relative="1" as="geometry"/>
                </mxCell>
                <mxCell id="23" value="assigned to" style="edgeStyle=none;html=1;startArrow=ERzeroToOne;startFill=0;endArrow=ERzeroToMany;endFill=0;startSize=20;endSize=20;jumpSize=6;strokeWidth=1;fillColor=#60a917;strokeColor=#2D7600;" parent="1" source="8" target="13" edge="1">
                    <mxGeometry relative="1" as="geometry"/>
                </mxCell>
                <mxCell id="8" value="users" style="rounded=1;whiteSpace=wrap;html=1;fillColor=#60a917;fontColor=#ffffff;strokeColor=#2D7600;" parent="1" vertex="1">
                    <mxGeometry x="3240" y="-440" width="120" height="80" as="geometry"/>
                </mxCell>
                <mxCell id="17" value="create/alter" style="edgeStyle=none;html=1;startArrow=ERoneToMany;startFill=0;endArrow=ERmandOne;endFill=0;startSize=20;endSize=20;strokeWidth=1;fillColor=#60a917;strokeColor=#2D7600;" parent="1" source="10" target="13" edge="1">
                    <mxGeometry relative="1" as="geometry"/>
                </mxCell>
                <mxCell id="55" value="allows" style="edgeStyle=none;rounded=1;jumpStyle=none;jumpSize=6;html=1;startArrow=ERzeroToMany;startFill=0;endArrow=ERzeroToMany;endFill=0;startSize=20;endSize=20;fillColor=#60a917;strokeColor=#2D7600;" parent="1" source="52" target="9" edge="1">
                    <mxGeometry relative="1" as="geometry">
                        <mxPoint x="2990" y="-250" as="targetPoint"/>
                        <Array as="points">
                            <mxPoint x="2940" y="-320"/>
                        </Array>
                    </mxGeometry>
                </mxCell>
                <mxCell id="9" value="user_types" style="rounded=1;whiteSpace=wrap;html=1;fillColor=#60a917;fontColor=#ffffff;strokeColor=#2D7600;" parent="1" vertex="1">
                    <mxGeometry x="2880" y="-440" width="120" height="80" as="geometry"/>
                </mxCell>
                <mxCell id="16" value="enter" style="edgeStyle=none;html=1;startArrow=ERzeroToMany;startFill=0;endArrow=ERmandOne;endFill=0;startSize=20;endSize=20;fillColor=#60a917;strokeColor=#2D7600;" parent="1" source="10" target="8" edge="1">
                    <mxGeometry relative="1" as="geometry"/>
                </mxCell>
                <mxCell id="10" value="alterations" style="rounded=1;whiteSpace=wrap;html=1;fillColor=#60a917;fontColor=#ffffff;strokeColor=#2D7600;" parent="1" vertex="1">
                    <mxGeometry x="2880" y="40" width="120" height="80" as="geometry"/>
                </mxCell>
                <mxCell id="20" value="from" style="edgeStyle=none;html=1;startArrow=ERzeroToMany;startFill=0;endArrow=ERmandOne;endFill=0;startSize=20;endSize=20;fillColor=#60a917;strokeColor=#2D7600;" parent="1" source="11" target="12" edge="1">
                    <mxGeometry relative="1" as="geometry"/>
                </mxCell>
                <mxCell id="29" value="makes" style="edgeStyle=none;jumpSize=6;html=1;startArrow=ERmandOne;startFill=0;endArrow=ERzeroToMany;endFill=0;startSize=20;endSize=20;strokeColor=#2D7600;strokeWidth=1;fillColor=#60a917;" parent="1" source="11" target="13" edge="1">
                    <mxGeometry relative="1" as="geometry"/>
                </mxCell>
                <mxCell id="11" value="clients" style="rounded=1;whiteSpace=wrap;html=1;fillColor=#60a917;fontColor=#ffffff;strokeColor=#2D7600;" parent="1" vertex="1">
                    <mxGeometry x="2880" y="280" width="120" height="80" as="geometry"/>
                </mxCell>
                <mxCell id="12" value="locations" style="rounded=1;whiteSpace=wrap;html=1;fillColor=#60a917;fontColor=#ffffff;strokeColor=#2D7600;" parent="1" vertex="1">
                    <mxGeometry x="2880" y="520" width="120" height="80" as="geometry"/>
                </mxCell>
                <mxCell id="13" value="requests" style="rounded=1;whiteSpace=wrap;html=1;fillColor=#60a917;fontColor=#ffffff;strokeColor=#2D7600;" parent="1" vertex="1">
                    <mxGeometry x="3240" y="280" width="120" height="80" as="geometry"/>
                </mxCell>
                <mxCell id="21" value="have" style="edgeStyle=none;html=1;startArrow=ERmandOne;startFill=0;endArrow=ERmandOne;endFill=0;startSize=20;endSize=20;fillColor=#60a917;strokeColor=#2D7600;" parent="1" source="14" target="13" edge="1">
                    <mxGeometry relative="1" as="geometry"/>
                </mxCell>
                <mxCell id="14" value="request_details" style="rounded=1;whiteSpace=wrap;html=1;fillColor=#60a917;fontColor=#ffffff;strokeColor=#2D7600;" parent="1" vertex="1">
                    <mxGeometry x="3140" y="520" width="120" height="80" as="geometry"/>
                </mxCell>
                <mxCell id="19" value="create/alter" style="edgeStyle=none;html=1;startArrow=ERoneToMany;startFill=0;endArrow=ERmandOne;endFill=0;startSize=20;endSize=20;fillColor=#60a917;strokeColor=#2D7600;" parent="1" source="10" target="11" edge="1">
                    <mxGeometry relative="1" as="geometry">
                        <mxPoint x="2910.000000000001" y="76.66666666666697" as="sourcePoint"/>
                        <mxPoint x="3150.000000000001" y="-16.666666666666515" as="targetPoint"/>
                    </mxGeometry>
                </mxCell>
                <mxCell id="24" value="assigned to" style="edgeStyle=none;html=1;startArrow=ERzeroToMany;startFill=0;endArrow=ERzeroToOne;endFill=0;startSize=20;endSize=20;jumpSize=6;strokeWidth=1;rounded=1;jumpStyle=none;fillColor=#60a917;strokeColor=#2D7600;" parent="1" source="11" target="8" edge="1">
                    <mxGeometry relative="1" as="geometry">
                        <mxPoint x="3150" y="60" as="sourcePoint"/>
                        <mxPoint x="3150" y="310" as="targetPoint"/>
                        <Array as="points">
                            <mxPoint x="2800" y="320"/>
                            <mxPoint x="2800" y="-520"/>
                            <mxPoint x="3300" y="-520"/>
                        </Array>
                    </mxGeometry>
                </mxCell>
                <mxCell id="25" value="concepts" style="rounded=1;whiteSpace=wrap;html=1;fillColor=#60a917;fontColor=#ffffff;strokeColor=#2D7600;" parent="1" vertex="1">
                    <mxGeometry x="3340" y="520" width="120" height="80" as="geometry"/>
                </mxCell>
                <mxCell id="27" value="are" style="edgeStyle=none;html=1;startArrow=ERmandOne;startFill=0;endArrow=ERzeroToMany;endFill=0;endSize=20;startSize=20;fillColor=#60a917;strokeColor=#2D7600;" parent="1" source="25" target="13" edge="1">
                    <mxGeometry relative="1" as="geometry">
                        <mxPoint x="3310" y="395" as="sourcePoint"/>
                        <mxPoint x="3359.9994117647057" y="285" as="targetPoint"/>
                    </mxGeometry>
                </mxCell>
                <mxCell id="40" value="clients" style="rounded=1;whiteSpace=wrap;html=1;" parent="1" vertex="1">
                    <mxGeometry x="4310" y="280" width="120" height="80" as="geometry"/>
                </mxCell>
                <mxCell id="42" value="requests" style="rounded=1;whiteSpace=wrap;html=1;" parent="1" vertex="1">
                    <mxGeometry x="4670" y="280" width="120" height="80" as="geometry"/>
                </mxCell>
                <mxCell id="43" value="have" style="edgeStyle=none;html=1;startArrow=ERmandOne;startFill=0;endArrow=ERmandOne;endFill=0;startSize=20;endSize=20;" parent="1" source="44" target="42" edge="1">
                    <mxGeometry relative="1" as="geometry"/>
                </mxCell>
                <mxCell id="44" value="request_details" style="rounded=1;whiteSpace=wrap;html=1;" parent="1" vertex="1">
                    <mxGeometry x="4570" y="520" width="120" height="80" as="geometry"/>
                </mxCell>
                <mxCell id="50" value="makes" style="edgeStyle=none;jumpSize=6;html=1;startArrow=ERmandOne;startFill=0;endArrow=ERzeroToMany;endFill=0;startSize=20;endSize=20;strokeColor=#FFFFFF;strokeWidth=1;" parent="1" source="40" target="42" edge="1">
                    <mxGeometry relative="1" as="geometry">
                        <mxPoint x="4410" y="414.38" as="sourcePoint"/>
                        <mxPoint x="4650" y="414.38" as="targetPoint"/>
                    </mxGeometry>
                </mxCell>
                <mxCell id="53" value="of" style="edgeStyle=none;rounded=1;jumpStyle=none;jumpSize=6;html=1;startArrow=ERmandOne;startFill=0;endArrow=ERzeroToMany;endFill=0;startSize=20;endSize=20;fillColor=#60a917;strokeColor=#2D7600;" parent="1" source="52" target="10" edge="1">
                    <mxGeometry relative="1" as="geometry"/>
                </mxCell>
                <mxCell id="52" value="alteration_types" style="rounded=1;whiteSpace=wrap;html=1;fillColor=#60a917;fontColor=#ffffff;strokeColor=#2D7600;" parent="1" vertex="1">
                    <mxGeometry x="2880" y="-200" width="120" height="80" as="geometry"/>
                </mxCell>
                <mxCell id="56" value="belong to" style="edgeStyle=none;html=1;startArrow=ERzeroToMany;startFill=0;endArrow=ERmandOne;endFill=0;endSize=20;startSize=20;fillColor=#60a917;strokeColor=#2D7600;" parent="1" source="58" target="61" edge="1">
                    <mxGeometry relative="1" as="geometry"/>
                </mxCell>
                <mxCell id="57" value="assigned to" style="edgeStyle=none;html=1;startArrow=ERzeroToOne;startFill=0;endArrow=ERzeroToMany;endFill=0;startSize=20;endSize=20;jumpSize=6;strokeWidth=1;" parent="1" source="58" target="68" edge="1">
                    <mxGeometry relative="1" as="geometry"/>
                </mxCell>
                <mxCell id="58" value="users" style="rounded=1;whiteSpace=wrap;html=1;fillColor=#60a917;fontColor=#ffffff;strokeColor=#2D7600;" parent="1" vertex="1">
                    <mxGeometry x="5640" y="-1800" width="120" height="80" as="geometry"/>
                </mxCell>
                <mxCell id="60" value="allows" style="edgeStyle=none;rounded=1;jumpStyle=none;jumpSize=6;html=1;startArrow=ERzeroToMany;startFill=0;endArrow=ERzeroToMany;endFill=0;startSize=20;endSize=20;fillColor=#60a917;strokeColor=#2D7600;" parent="1" source="76" target="61" edge="1">
                    <mxGeometry relative="1" as="geometry">
                        <mxPoint x="5400" y="-1610" as="targetPoint"/>
                        <Array as="points"/>
                    </mxGeometry>
                </mxCell>
                <mxCell id="61" value="user_types" style="rounded=1;whiteSpace=wrap;html=1;fillColor=#60a917;fontColor=#ffffff;strokeColor=#2D7600;" parent="1" vertex="1">
                    <mxGeometry x="5280" y="-1800" width="120" height="80" as="geometry"/>
                </mxCell>
                <mxCell id="63" value="alterations" style="rounded=1;whiteSpace=wrap;html=1;fillColor=#60a917;fontColor=#ffffff;strokeColor=#2D7600;" parent="1" vertex="1">
                    <mxGeometry x="5280" y="-1320" width="120" height="80" as="geometry"/>
                </mxCell>
                <mxCell id="64" value="from" style="edgeStyle=none;html=1;startArrow=ERzeroToMany;startFill=0;endArrow=ERmandOne;endFill=0;startSize=20;endSize=20;fillColor=#60a917;strokeColor=#2D7600;" parent="1" source="66" target="67" edge="1">
                    <mxGeometry relative="1" as="geometry"/>
                </mxCell>
                <mxCell id="65" value="makes" style="edgeStyle=none;jumpSize=6;html=1;startArrow=ERmandOne;startFill=0;endArrow=ERzeroToMany;endFill=0;startSize=20;endSize=20;strokeColor=#2D7600;strokeWidth=1;fillColor=#60a917;" parent="1" source="66" target="68" edge="1">
                    <mxGeometry relative="1" as="geometry"/>
                </mxCell>
                <mxCell id="66" value="clients" style="rounded=1;whiteSpace=wrap;html=1;fillColor=#60a917;fontColor=#ffffff;strokeColor=#2D7600;" parent="1" vertex="1">
                    <mxGeometry x="5280" y="-1080" width="120" height="80" as="geometry"/>
                </mxCell>
                <mxCell id="67" value="locations" style="rounded=1;whiteSpace=wrap;html=1;fillColor=#60a917;fontColor=#ffffff;strokeColor=#2D7600;" parent="1" vertex="1">
                    <mxGeometry x="5280" y="-840" width="120" height="80" as="geometry"/>
                </mxCell>
                <mxCell id="68" value="requests" style="rounded=1;whiteSpace=wrap;html=1;fillColor=#60a917;fontColor=#ffffff;strokeColor=#2D7600;" parent="1" vertex="1">
                    <mxGeometry x="5640" y="-1080" width="120" height="80" as="geometry"/>
                </mxCell>
                <mxCell id="69" value="have" style="edgeStyle=none;html=1;startArrow=ERmandOne;startFill=0;endArrow=ERmandOne;endFill=0;startSize=20;endSize=20;fillColor=#60a917;strokeColor=#2D7600;" parent="1" source="70" target="68" edge="1">
                    <mxGeometry relative="1" as="geometry"/>
                </mxCell>
                <mxCell id="70" value="request_details" style="rounded=1;whiteSpace=wrap;html=1;fillColor=#60a917;fontColor=#ffffff;strokeColor=#2D7600;" parent="1" vertex="1">
                    <mxGeometry x="5540" y="-840" width="120" height="80" as="geometry"/>
                </mxCell>
                <mxCell id="71" value="create/alter" style="edgeStyle=none;html=1;startArrow=ERoneToMany;startFill=0;endArrow=ERmandOne;endFill=0;startSize=20;endSize=20;fillColor=#60a917;strokeColor=#2D7600;" parent="1" source="63" target="66" edge="1">
                    <mxGeometry relative="1" as="geometry">
                        <mxPoint x="5320.000000000001" y="-1283.333333333333" as="sourcePoint"/>
                        <mxPoint x="5560.000000000001" y="-1376.6666666666665" as="targetPoint"/>
                    </mxGeometry>
                </mxCell>
                <mxCell id="72" value="assigned to" style="edgeStyle=none;html=1;startArrow=ERzeroToMany;startFill=0;endArrow=ERzeroToOne;endFill=0;startSize=20;endSize=20;jumpSize=6;strokeWidth=1;rounded=1;jumpStyle=none;" parent="1" source="66" target="58" edge="1">
                    <mxGeometry relative="1" as="geometry">
                        <mxPoint x="5560" y="-1300" as="sourcePoint"/>
                        <mxPoint x="5560" y="-1050" as="targetPoint"/>
                        <Array as="points">
                            <mxPoint x="5200" y="-1040"/>
                            <mxPoint x="5200" y="-1880"/>
                            <mxPoint x="5700" y="-1880"/>
                        </Array>
                    </mxGeometry>
                </mxCell>
                <mxCell id="73" value="concepts" style="rounded=1;whiteSpace=wrap;html=1;fillColor=#60a917;fontColor=#ffffff;strokeColor=#2D7600;" parent="1" vertex="1">
                    <mxGeometry x="5740" y="-840" width="120" height="80" as="geometry"/>
                </mxCell>
                <mxCell id="74" value="are" style="edgeStyle=none;html=1;startArrow=ERmandOne;startFill=0;endArrow=ERzeroToMany;endFill=0;endSize=20;startSize=20;fillColor=#60a917;strokeColor=#2D7600;" parent="1" source="73" target="68" edge="1">
                    <mxGeometry relative="1" as="geometry">
                        <mxPoint x="5720" y="-965" as="sourcePoint"/>
                        <mxPoint x="5769.999411764706" y="-1075" as="targetPoint"/>
                    </mxGeometry>
                </mxCell>
                <mxCell id="75" value="of" style="edgeStyle=none;rounded=1;jumpStyle=none;jumpSize=6;html=1;startArrow=ERmandOne;startFill=0;endArrow=ERzeroToMany;endFill=0;startSize=20;endSize=20;" parent="1" source="76" target="63" edge="1">
                    <mxGeometry relative="1" as="geometry"/>
                </mxCell>
                <mxCell id="76" value="alteration type" style="rounded=1;whiteSpace=wrap;html=1;fillColor=#60a917;fontColor=#ffffff;strokeColor=#2D7600;" parent="1" vertex="1">
                    <mxGeometry x="5280" y="-1560" width="120" height="80" as="geometry"/>
                </mxCell>
                <mxCell id="77" value="graph TD;&#10;    A--&gt;B;&#10;    A--&gt;C;&#10;    B--&gt;D;&#10;    C--&gt;D;" style="shadow=0;dashed=0;align=left;strokeWidth=1;shape=mxgraph.mermaid.abstract.mermaid;labelBackgroundColor=#ffffff;noLabel=1;theme=dark;" parent="1" vertex="1">
                    <mxGeometry x="6640" y="-1530" width="680" height="760" as="geometry"/>
                </mxCell>
                <mxCell id="59" value="create/alter" style="edgeStyle=none;html=1;startArrow=ERoneToMany;startFill=0;endArrow=ERmandOne;endFill=0;startSize=20;endSize=20;strokeWidth=1;fillColor=#60a917;strokeColor=#2D7600;exitX=1;exitY=1;exitDx=0;exitDy=0;" parent="1" source="63" target="68" edge="1">
                    <mxGeometry relative="1" as="geometry">
                        <mxPoint x="5460" y="-1240" as="sourcePoint"/>
                    </mxGeometry>
                </mxCell>
                <mxCell id="62" value="enter" style="edgeStyle=none;html=1;startArrow=ERzeroToMany;startFill=0;endArrow=ERmandOne;endFill=0;startSize=20;endSize=20;fillColor=#60a917;strokeColor=#2D7600;" parent="1" source="63" target="58" edge="1">
                    <mxGeometry relative="1" as="geometry"/>
                </mxCell>
            </root>
        </mxGraphModel>
    </diagram>
</mxfile>